<?xml version="1.0" encoding="UTF-8"?>
<svg version="1.1" xmlns="http://www.w3.org/2000/svg" width="512" height="512">
<path d="M0 0 C1.36344334 -0.00346793 2.72688387 -0.00824002 4.09031868 -0.01418173 C7.79006702 -0.02656582 11.48957963 -0.02057973 15.18932819 -0.01122308 C19.19758415 -0.00438055 23.20580211 -0.01493936 27.21405029 -0.02316284 C35.04770911 -0.03644734 42.88128131 -0.03364613 50.71494341 -0.02492492 C57.08603147 -0.01812787 63.45709539 -0.01724036 69.82818604 -0.02049637 C71.19244506 -0.02118592 71.19244506 -0.02118592 72.58426487 -0.0218894 C74.4323659 -0.02284865 76.28046692 -0.02382129 78.12856793 -0.02480717 C95.42601653 -0.03334559 112.7234173 -0.0235513 130.02085805 -0.00740607 C144.83733425 0.0059957 159.65373992 0.00366717 174.47021484 -0.01016235 C191.70912015 -0.02624559 208.94798361 -0.03252176 226.18689537 -0.02332556 C228.02789687 -0.02236999 229.86889839 -0.02142688 231.7098999 -0.02049637 C232.61552079 -0.02003354 233.52114168 -0.01957072 234.45420563 -0.01909386 C240.81178621 -0.0165122 247.16934007 -0.02085714 253.5269165 -0.02793503 C261.2830619 -0.03638078 269.0391163 -0.03400559 276.79525137 -0.0180928 C280.74653469 -0.01025124 284.69766674 -0.00704747 288.64894867 -0.01704025 C292.27606908 -0.02607396 295.90290005 -0.02091411 299.52999473 -0.0051076 C301.44187262 -0.00024472 303.35377112 -0.00987804 305.26562691 -0.02027929 C333.07795717 0.16566716 357.15248179 12.22569324 377.33154297 30.88485718 C397.06215816 51.089766 407.30279211 77.52603036 407.1499939 105.61190796 C407.15346183 106.9753513 407.15823392 108.33879183 407.16417563 109.70222664 C407.17655971 113.40197498 407.17057363 117.10148759 407.16121697 120.80123615 C407.15437445 124.80949211 407.16493326 128.81771007 407.17315674 132.82595825 C407.18644124 140.65961707 407.18364002 148.49318927 407.17491882 156.32685137 C407.16812176 162.69793943 407.16723426 169.06900334 407.17049026 175.44009399 C407.17094996 176.34960001 407.17140966 177.25910603 407.17188329 178.19617283 C407.17284255 180.04427386 407.17381519 181.89237488 407.17480107 183.74047589 C407.18333948 201.03792449 407.17354519 218.33532526 407.15739997 235.63276601 C407.1439982 250.44924221 407.14632673 265.26564787 407.16015625 280.0821228 C407.17623949 297.32102811 407.18251565 314.55989157 407.17331946 331.79880333 C407.17236389 333.63980483 407.17142078 335.48080634 407.17049026 337.32180786 C407.17002744 338.22742875 407.16956461 339.13304964 407.16908776 340.06611359 C407.16650609 346.42369417 407.17085104 352.78124803 407.17792892 359.13882446 C407.18637468 366.89496985 407.18399949 374.65102425 407.16808669 382.40715933 C407.16024514 386.35844265 407.15704137 390.3095747 407.16703415 394.26085663 C407.17606785 397.88797704 407.170908 401.514808 407.15510149 405.14190269 C407.15023862 407.05378058 407.15987194 408.96567908 407.17027318 410.87753487 C406.98432674 438.68986513 394.92430066 462.76438975 376.26513672 482.94345093 C356.0602279 502.67406612 329.62396354 512.91470007 301.53808594 512.76190186 C300.17464259 512.76536978 298.81120207 512.77014188 297.44776726 512.77608359 C293.74801892 512.78846767 290.04850631 512.78248158 286.34875774 512.77312493 C282.34050178 512.76628241 278.33228382 512.77684121 274.32403564 512.7850647 C266.49037683 512.79834919 258.65680463 512.79554798 250.82314253 512.78682677 C244.45205447 512.78002972 238.08099055 512.77914221 231.7098999 512.78239822 C230.34564088 512.78308777 230.34564088 512.78308777 228.95382106 512.78379125 C227.10572004 512.7847505 225.25761902 512.78572315 223.409518 512.78670903 C206.11206941 512.79524744 188.81466864 512.78545315 171.51722789 512.76930793 C156.70075169 512.75590616 141.88434602 512.75823469 127.06787109 512.77206421 C109.82896579 512.78814745 92.59010233 512.79442361 75.35119057 512.78522742 C73.51018906 512.78427185 71.66918755 512.78332874 69.82818604 512.78239822 C68.92256514 512.7819354 68.01694425 512.78147257 67.08388031 512.78099572 C60.72629973 512.77841405 54.36874587 512.782759 48.01116943 512.78983688 C40.25502404 512.79828264 32.49896964 512.79590745 24.74283457 512.77999465 C20.79155125 512.7721531 16.8404192 512.76894933 12.88913727 512.77894211 C9.26201686 512.78797581 5.63518589 512.78281596 2.00809121 512.76700945 C0.09621331 512.76214657 -1.81568518 512.7717799 -3.72754097 512.78218114 C-31.53987123 512.5962347 -55.61439585 500.53620862 -75.79345703 481.87704468 C-95.52407222 461.67213585 -105.76470617 435.2358715 -105.61190796 407.1499939 C-105.61537589 405.78655055 -105.62014798 404.42311002 -105.62608969 403.05967522 C-105.63847378 399.35992687 -105.63248769 395.66041427 -105.62313104 391.9606657 C-105.61628851 387.95240974 -105.62684732 383.94419178 -105.6350708 379.9359436 C-105.6483553 372.10228479 -105.64555409 364.26871259 -105.63683288 356.43505049 C-105.63003583 350.06396243 -105.62914832 343.69289851 -105.63240433 337.32180786 C-105.63286403 336.41230184 -105.63332373 335.50279583 -105.63379735 334.56572902 C-105.63475661 332.717628 -105.63572925 330.86952698 -105.63671513 329.02142596 C-105.64525354 311.72397736 -105.63545925 294.4265766 -105.61931403 277.12913585 C-105.60591226 262.31265965 -105.60824079 247.49625398 -105.62207031 232.67977905 C-105.63815355 215.44087375 -105.64442972 198.20201028 -105.63523352 180.96309853 C-105.63427795 179.12209702 -105.63333484 177.28109551 -105.63240433 175.44009399 C-105.6319415 174.5344731 -105.63147867 173.62885221 -105.63100182 172.69578826 C-105.62842016 166.33820769 -105.6327651 159.98065383 -105.63984299 153.62307739 C-105.64828874 145.866932 -105.64591355 138.1108776 -105.63000076 130.35474253 C-105.6221592 126.40345921 -105.61895543 122.45232716 -105.62894821 118.50104523 C-105.63798192 114.87392481 -105.63282207 111.24709385 -105.61701556 107.61999917 C-105.61215268 105.70812127 -105.621786 103.79622278 -105.63218725 101.88436699 C-105.4462408 74.07203673 -93.38621472 49.99751211 -74.72705078 29.81845093 C-54.52214196 10.08783574 -28.0858776 -0.15279822 0 0 Z M265.78463745 85.66499329 C264.56881255 85.87219611 264.56881255 85.87219611 263.32842553 86.08358485 C260.60869565 86.5479374 257.88981091 87.01706238 255.17089844 87.48617554 C253.22288686 87.81980163 251.27482656 88.15314332 249.32672119 88.48622131 C244.03306486 89.39222719 238.74014288 90.30245729 233.44737005 91.2136085 C227.91530136 92.16540862 222.3826714 93.1139359 216.85012817 94.06297302 C207.5604808 95.65705348 198.2713171 97.2539294 188.98242188 98.85238647 C178.23124459 100.70243512 167.47926891 102.54778646 156.7268647 104.39068979 C146.39577042 106.1615179 136.06529395 107.93592558 125.73508072 109.71188545 C121.33260855 110.46867186 116.92991346 111.22414195 112.52703476 111.97855949 C107.34738114 112.8662216 102.16827097 113.75698796 96.98957062 114.65019417 C95.08455611 114.97823751 93.1793526 115.30518532 91.27395248 115.63098145 C88.68194573 116.07435849 86.09063998 116.52162293 83.4994812 116.96992493 C82.7376276 117.09930433 81.975774 117.22868373 81.19083393 117.36198372 C77.36606472 117.99878752 77.36606472 117.99878752 73.76904297 119.38095093 C73.76904297 194.29095093 73.76904297 269.20095093 73.76904297 346.38095093 C62.21904297 346.38095093 50.66904297 346.38095093 38.76904297 346.38095093 C24.82884698 348.70431693 14.42095618 352.29332645 5.94482422 363.87313843 C-0.54217725 374.2083611 -2.02883867 385.64992095 0.42138672 397.54891968 C3.77445927 407.75204602 10.64696132 415.79748283 19.76904297 421.38095093 C29.98525197 426.17571949 39.9204825 426.56177309 51.01904297 426.56845093 C52.07478516 426.58069702 53.13052734 426.59294312 54.21826172 426.6055603 C69.26829174 426.63319194 81.50769805 424.14657094 92.72607422 413.62313843 C102.01522844 403.42815846 103.94257252 391.40040272 103.88929749 378.09188843 C103.89015191 377.29692742 103.89100634 376.50196642 103.89188665 375.68291569 C103.8935232 373.04057058 103.88805019 370.39829011 103.88256836 367.75595093 C103.88228607 365.85331728 103.88244504 363.95068352 103.88301086 362.04804993 C103.8832972 356.89785187 103.87742694 351.74767722 103.87043691 346.59748459 C103.8641761 341.20963409 103.86359741 335.82178302 103.8624115 330.43392944 C103.85930622 320.23793372 103.85110367 310.04194875 103.84106201 299.84595776 C103.82987591 288.23535372 103.82438413 276.62474917 103.81936657 265.01414108 C103.80892039 241.13640508 103.79133651 217.2586786 103.76904297 193.38095093 C104.32956348 193.30441146 104.89008399 193.227872 105.46758997 193.14901316 C121.54421728 190.94900599 137.52044938 188.2664993 153.50732422 185.49423218 C155.90844085 185.08001858 158.3096046 184.66607806 160.71081543 184.25241089 C169.50162609 182.73604761 178.29153292 181.21444832 187.08154297 179.69345093 C216.62685547 174.58876343 216.62685547 174.58876343 246.76904297 169.38095093 C247.09904297 217.89095093 247.42904297 266.40095093 247.76904297 316.38095093 C236.21904297 316.38095093 224.66904297 316.38095093 212.76904297 316.38095093 C198.82884698 318.70431693 188.42095618 322.29332645 179.94482422 333.87313843 C173.45782275 344.2083611 171.97116133 355.64992095 174.42138672 367.54891968 C177.77445927 377.75204602 184.64696132 385.79748283 193.76904297 391.38095093 C203.98525197 396.17571949 213.9204825 396.56177309 225.01904297 396.56845093 C226.07478516 396.58069702 227.13052734 396.59294312 228.21826172 396.6055603 C243.26829174 396.63319194 255.50769805 394.14657094 266.72607422 383.62313843 C276.88129549 372.47763745 277.92978111 359.4780001 277.88929749 345.09274292 C277.89015191 343.97518128 277.89100634 342.85761964 277.89188665 341.70619249 C277.89353003 337.97211114 277.88803877 334.238075 277.88256836 330.5039978 C277.88228622 327.82304788 277.88240075 325.14210071 277.88301086 322.46115112 C277.88353421 316.6947025 277.88040715 310.92826523 277.87477303 305.16181946 C277.86663243 296.82459435 277.86404018 288.48737472 277.86278503 280.15014607 C277.86059854 266.6222602 277.85394935 253.09438039 277.84448242 239.5664978 C277.8352979 226.42847728 277.82822215 213.29045839 277.82397461 200.1524353 C277.82371189 199.34207429 277.82344916 198.53171328 277.82317848 197.69679588 C277.8218734 193.63129359 277.8206097 189.56579128 277.81936657 185.50028896 C277.80900648 151.79383857 277.79139911 118.08739549 277.76904297 84.38095093 C273.64741565 84.38095093 269.82544887 84.96283169 265.78463745 85.66499329 Z " fill="#FFFFFF"
fill-rule="nonzero"
transform="translate(105.23095703125,-0.380950927734375)"/>
</svg>