<svg xmlns="http://www.w3.org/2000/svg" version="1.1" width="2000" height="2000">
<path d="M0 0 C4.49592583 0.01145459 8.99161644 0.00455973 13.48753452 -0.00687027 C40.20870631 -0.06467145 66.61526961 0.86158218 93.1237793 4.51074219 C93.90735809 4.61612305 94.69093689 4.72150391 95.4982605 4.83007812 C112.24682169 7.08933741 128.86899168 9.92732128 145.4362793 13.26074219 C146.41226074 13.45603516 147.38824219 13.65132813 148.39379883 13.85253906 C177.67970941 19.86923866 207.07118758 30.19003541 233.4362793 44.26074219 C234.60416992 44.87433594 235.77206055 45.48792969 236.9753418 46.12011719 C272.75637738 65.66641654 302.53694048 96.95103477 314.7253418 136.28808594 C320.6613887 157.32048232 323.40933996 189.54265348 312.4362793 209.26074219 C309.08169859 212.52465855 306.01162882 214.25416529 301.4362793 215.26074219 C295.91894489 214.9651707 291.03015927 213.81267261 286.98706055 209.83496094 C282.68024818 204.861765 282.2985662 201.37471488 282.3112793 194.94824219 C282.30870117 193.65273438 282.30612305 192.35722656 282.3034668 191.02246094 C282.4362793 187.26074219 282.4362793 187.26074219 282.9284668 184.46777344 C286.88400077 159.48705501 280.11189587 135.64608509 265.84545898 115.16552734 C261.84921925 109.76381869 257.22684326 104.95663743 252.4362793 100.26074219 C251.60225586 99.43960938 250.76823242 98.61847656 249.90893555 97.77246094 C239.09815613 87.62749938 226.49160691 80.11939424 213.4362793 73.26074219 C212.69506836 72.86773926 211.95385742 72.47473633 211.19018555 72.06982422 C182.09491165 56.85368288 149.00046897 47.30102628 116.54956055 42.86621094 C113.60672796 42.46225512 110.72348135 41.91792942 107.81811523 41.30126953 C102.63758604 40.2556682 97.46492295 39.57956889 92.21362305 39.00683594 C91.26926895 38.90105728 90.32491486 38.79527863 89.35194397 38.68629456 C87.36475122 38.4648945 85.37731387 38.24567992 83.38964844 38.02856445 C80.40507745 37.70167021 77.42165634 37.36550411 74.43823242 37.02832031 C72.48842486 36.81226318 70.53855675 36.59675162 68.58862305 36.38183594 C67.72341537 36.28390244 66.8582077 36.18596893 65.96678162 36.08506775 C51.80565337 34.5573545 37.6560416 34.09980908 23.42456055 34.09277344 C21.8392077 34.08954047 20.25385512 34.08617509 18.66850281 34.08268738 C15.36509514 34.07675702 12.06171338 34.07484082 8.75830078 34.07543945 C5.4418384 34.07552017 2.12551575 34.06865425 -1.19091797 34.05493164 C-30.11381578 33.9373572 -58.61911961 35.32496013 -87.3762207 38.63574219 C-88.33176849 38.74368103 -89.28731628 38.85161987 -90.27182007 38.96282959 C-105.11287488 40.64219305 -119.86419742 42.59027403 -134.5637207 45.26074219 C-135.30638184 45.3919043 -136.04904297 45.52306641 -136.81420898 45.65820312 C-141.40904831 46.4698632 -145.9881397 47.34562599 -150.5637207 48.26074219 C-151.23338867 48.39416016 -151.90305664 48.52757812 -152.59301758 48.66503906 C-219.06878686 62.00938868 -286.17259631 82.92238012 -341.5637207 123.26074219 C-342.13912598 123.6792041 -342.71453125 124.09766602 -343.30737305 124.52880859 C-353.48421922 131.99610225 -362.64841237 140.33096095 -371.5637207 149.26074219 C-372.2237207 149.87433594 -372.8837207 150.48792969 -373.5637207 151.12011719 C-398.94859569 175.11675682 -415.77485265 209.35353583 -416.8996582 244.33886719 C-417.30217233 275.96995063 -409.67211742 300.0704815 -387.4699707 323.35058594 C-357.09378186 354.28816268 -312.95394624 368.27223882 -271.96166992 378.41699219 C-269.81283591 378.95057247 -267.66575821 379.49132155 -265.52124023 380.04199219 C-229.58822208 389.2638996 -192.39070857 393.39827998 -155.5637207 397.26074219 C-154.67656372 397.35466248 -153.78940674 397.44858276 -152.87536621 397.54534912 C-129.64437784 400.00272746 -106.38589822 402.12218965 -83.1105957 404.10839844 C-82.1568701 404.18981834 -81.20314449 404.27123825 -80.22051811 404.35512543 C-78.26875838 404.52173743 -76.31699744 404.68833531 -74.36523533 404.85491943 C-9.04855514 410.4302397 -9.04855514 410.4302397 21.46661758 413.73587799 C23.38829209 413.94306832 25.31039876 414.14623791 27.23251343 414.3493042 C44.79234049 416.21708754 62.09399017 418.9390014 79.4362793 422.26074219 C80.42932571 422.45052643 81.42237213 422.64031067 82.44551086 422.83584595 C87.38368791 423.78407227 92.31329786 424.76175313 97.23364258 425.79882812 C98.6577838 426.09748421 100.08318617 426.39021495 101.51000977 426.67578125 C135.13972867 433.43593303 174.12558025 448.02451668 194.5300293 477.26074219 C204.89835286 493.35485638 209.03885433 509.91823144 208.8112793 528.94824219 C208.80629425 529.65039856 208.8013092 530.35255493 208.7961731 531.07598877 C208.48523754 568.48924282 193.13445565 596.48499406 167.04956055 622.65527344 C155.07334585 633.94016165 140.9210043 642.60822827 126.4362793 650.26074219 C125.52821533 650.75453369 125.52821533 650.75453369 124.60180664 651.25830078 C104.79549739 662.01365566 83.10213519 669.27591003 61.4362793 675.26074219 C60.74469727 675.4532959 60.05311523 675.64584961 59.34057617 675.84423828 C34.51390464 682.59391068 8.58102553 685.91285431 -17.00878906 687.96704102 C-18.96488971 688.12865005 -20.92057594 688.29943813 -22.87190247 688.5110321 C-31.0236741 689.36008902 -39.14708763 689.4245674 -47.33325195 689.42871094 C-48.85991952 689.43193927 -50.3865868 689.43530439 -51.91325378 689.438797 C-55.1112845 689.44475738 -58.30928835 689.4466407 -61.50732422 689.44604492 C-64.7192967 689.44596456 -67.93112382 689.45276545 -71.14306641 689.46655273 C-97.36645255 689.57727549 -123.48136524 689.01577723 -149.5012207 685.38574219 C-151.42708008 685.12531128 -151.42708008 685.12531128 -153.3918457 684.85961914 C-174.2624245 681.98159129 -194.71000103 677.81039454 -215.21411133 673.03320312 C-217.90496898 672.4126584 -220.59746838 671.81322747 -223.2980957 671.23730469 C-250.3826158 665.30916675 -278.20701702 656.41158179 -302.69165039 643.2578125 C-304.68054755 642.19851986 -306.68615316 641.17705794 -308.6965332 640.15917969 C-310.04851586 639.46468451 -311.40009249 638.76939822 -312.7512207 638.07324219 C-313.36360596 637.76443115 -313.97599121 637.45562012 -314.60693359 637.13745117 C-319.56377439 634.5321185 -323.74769902 631.70880724 -325.5637207 626.26074219 C-326.04279558 620.81813748 -326.2534072 615.90999251 -324.1262207 610.82324219 C-319.84175236 606.53877385 -315.42599956 603.60379982 -309.3371582 602.87402344 C-304.44160416 603.37574171 -300.85276887 605.11876396 -296.5012207 607.32324219 C-295.65833496 607.73445312 -294.81544922 608.14566406 -293.94702148 608.56933594 C-290.29705005 610.35787054 -286.68284946 612.19762673 -283.09106445 614.10058594 C-240.97567582 636.28031353 -189.62604313 645.46888781 -142.8137207 651.07324219 C-141.50704941 651.23122284 -141.50704941 651.23122284 -140.17398071 651.39239502 C-116.23350527 654.25120423 -92.39409135 654.5067414 -68.3137207 654.51074219 C-67.50146404 654.51103676 -66.68920738 654.51133133 -65.85233688 654.51163483 C-22.41949384 654.51417747 20.30254099 652.68849537 62.17260742 639.94580078 C64.26950597 639.31121306 66.3728728 638.7122461 68.4831543 638.12402344 C94.11440563 630.67003708 117.65737917 618.97686561 138.4362793 602.26074219 C139.29737305 601.58527344 140.1584668 600.90980469 141.0456543 600.21386719 C157.20095503 586.80840488 169.49300528 566.09976908 172.4362793 545.26074219 C173.70673988 525.30647011 173.30303638 509.35138472 160.4362793 493.26074219 C159.46948242 492.00197266 159.46948242 492.00197266 158.4831543 490.71777344 C141.73844585 470.61773219 110.71060939 463.9007154 86.4362793 458.26074219 C85.58243652 458.05884277 84.72859375 457.85694336 83.84887695 457.64892578 C34.92838025 446.32154854 -16.66099743 444.39153784 -66.59106445 440.24121094 C-67.63721483 440.1542288 -68.68336521 440.06724667 -69.76121712 439.97762871 C-80.24192885 439.10711392 -90.72312635 438.24294209 -101.20564175 437.39440823 C-120.88712603 435.80003275 -140.55427086 434.13980641 -160.1965332 432.11230469 C-160.99856674 432.02953152 -161.80060028 431.94675835 -162.62693787 431.8614769 C-183.72092833 429.6725677 -204.65218454 426.79018041 -225.5637207 423.26074219 C-226.71098633 423.06722168 -227.85825195 422.87370117 -229.0402832 422.67431641 C-249.02550489 419.27298541 -268.84536874 415.50797634 -288.24731445 409.56542969 C-291.3109924 408.62767043 -294.38513914 407.74516469 -297.47387695 406.89355469 C-317.86473387 401.26330105 -337.47300026 394.40208759 -356.5637207 385.26074219 C-357.28140625 384.92042969 -357.9990918 384.58011719 -358.73852539 384.22949219 C-378.91072478 374.6174251 -397.3595532 362.75169809 -413.5637207 347.26074219 C-414.2959082 346.59171875 -415.0280957 345.92269531 -415.7824707 345.23339844 C-439.91731061 322.41577691 -451.61602918 289.7443857 -452.8371582 257.06152344 C-453.131747 244.17719125 -452.18950714 231.86844034 -449.5637207 219.26074219 C-449.41918457 218.5345166 -449.27464844 217.80829102 -449.12573242 217.06005859 C-443.97021892 191.49944515 -432.29006558 168.94844312 -416.5637207 148.26074219 C-415.85473633 147.31972656 -415.14575195 146.37871094 -414.4152832 145.40917969 C-403.1319747 130.90206875 -389.9829165 117.61489503 -375.5637207 106.26074219 C-374.50542896 105.4012951 -373.44817401 104.5405701 -372.3918457 103.67871094 C-357.48873473 91.61324994 -341.33399696 81.51275278 -324.5637207 72.26074219 C-323.69682617 71.78137207 -322.82993164 71.30200195 -321.93676758 70.80810547 C-284.13559857 50.08306107 -242.96335755 35.40535176 -201.21704102 24.93554688 C-197.92733897 24.09889464 -194.65270104 23.21142215 -191.37695312 22.32202148 C-170.47351891 16.68526429 -149.40832403 13.00680933 -128.0246582 9.80419922 C-125.11155287 9.34676606 -122.22399087 8.83201019 -119.3293457 8.27246094 C-111.83728382 6.88066317 -104.27454579 5.99691498 -96.7121582 5.08349609 C-94.15085123 4.77136042 -91.59180206 4.44408795 -89.0324707 4.11621094 C-59.4639405 0.45023271 -29.7571513 -0.07629034 0 0 Z " fill="#FDFDFD" transform="translate(680.563720703125,404.7392578125)"/>
<path d="M0 0 C4.01381314 1.2180607 8.04437986 2.37569726 12.07495117 3.53686523 C21.7024065 6.31338522 31.28755913 9.19867806 40.82861328 12.25878906 C44.09694834 13.30553676 47.36692489 14.34681859 50.63891602 15.38208008 C66.41276348 20.37640179 82.13563546 25.52222423 97.85571289 30.68286133 C113.68169025 35.89838941 113.68169025 35.89838941 129.5847168 40.87182617 C133.87130658 42.17549135 138.14649771 43.51477041 142.42285156 44.8515625 C160.60130522 50.52297031 178.76684006 56.16627452 197.15332031 61.13232422 C199.84609825 61.86365379 202.53327798 62.61296804 205.21972656 63.3671875 C225.01787654 68.90008263 244.99009234 73.77625816 265.12988281 77.8984375 C267.0409657 78.28977256 268.95068266 78.68775965 270.86035156 79.0859375 C280.29634547 81.0184424 280.29634547 81.0184424 289.84472656 80.86328125 C292.62585139 78.73610133 292.62585139 78.73610133 294.71972656 75.55078125 C295.63942104 74.35265338 296.56851213 73.16170312 297.50488281 71.9765625 C298.28049561 70.99357178 298.28049561 70.99357178 299.07177734 69.99072266 C310.95995135 55.72556866 335.13461001 28.82917732 355.03222656 26.48828125 C361.09078503 27.08420503 364.8066297 30.13089892 369.34472656 33.98828125 C371.70362498 38.50950322 371.44865879 42.8732912 370.84472656 47.86328125 C368.26724486 54.68602692 361.09329472 58.74886791 355.21972656 62.55078125 C344.71690859 69.43873697 335.51010793 77.79485889 326.84472656 86.86328125 C344.69599282 89.96392278 362.43028322 90.07840431 380.50024414 90.10351562 C384.47786773 90.11000676 388.45511436 90.14421964 392.43261719 90.17578125 C436.15054478 90.35575318 480.02304795 83.89036571 518.84472656 62.86328125 C519.9365625 62.27546875 521.02839844 61.68765625 522.15332031 61.08203125 C528.94065214 57.27766691 534.95253844 52.93527679 540.84472656 47.86328125 C541.70195313 47.12851562 542.55917969 46.39375 543.44238281 45.63671875 C547.42943627 42.13677137 551.13892975 38.63334148 554.53222656 34.55078125 C558.51656246 29.87595154 562.11646258 27.19833121 568.40722656 26.42578125 C573.72342236 27.10238799 577.16473593 28.84041239 580.65722656 32.86328125 C583.87032861 37.26982121 584.63434216 41.49577522 583.84472656 46.86328125 C581.08278331 53.35342036 576.64315227 57.81033686 571.84472656 62.86328125 C571.090625 63.68183594 570.33652344 64.50039063 569.55957031 65.34375 C547.14590198 88.87997268 516.24062914 101.36884361 485.84472656 110.86328125 C484.5582064 111.2784543 483.27173847 111.69378926 481.98535156 112.109375 C458.43625049 119.34875177 431.89249931 123.00672272 407.27832031 123.03125 C405.49072044 123.0362426 405.49072044 123.0362426 403.66700745 123.04133606 C401.14820742 123.04637882 398.62940077 123.04874521 396.1105957 123.04858398 C392.34542084 123.05074498 388.58055186 123.06885863 384.81542969 123.08789062 C363.18408782 123.13947174 341.90006279 121.59989885 320.46972656 118.73828125 C318.38624765 118.46458546 316.30255498 118.19266478 314.21859741 117.92263794 C312.38731984 117.68467081 310.5566706 117.44188225 308.72607422 117.19873047 C305.83154906 116.8054613 305.83154906 116.8054613 302.84472656 116.86328125 C301.28826037 119.02759815 299.96687776 121.1167115 298.65722656 123.42578125 C298.06566772 124.4463562 298.06566772 124.4463562 297.4621582 125.48754883 C296.24312017 127.60554501 295.04313061 129.7335574 293.84472656 131.86328125 C293.4918457 132.47719727 293.13896484 133.09111328 292.77539062 133.72363281 C271.21250843 171.31885969 264.8495151 215.31767434 263.30957031 258.05078125 C263.26783188 259.17444092 263.22609344 260.29810059 263.18309021 261.45581055 C262.80297257 272.16402419 262.61352262 282.87240222 262.45684814 293.58581543 C261.88309016 331.48207126 261.04652086 369.42212902 258.40722656 407.23828125 C258.32399139 408.47016174 258.32399139 408.47016174 258.23907471 409.72692871 C257.40085353 421.87912452 255.80817934 433.84406473 253.84472656 445.86328125 C253.65348206 447.03545448 253.65348206 447.03545448 253.45837402 448.23130798 C245.51367973 496.58516887 227.67174787 540.95831435 193.84472656 576.86328125 C193.14863281 577.62511719 192.45253906 578.38695312 191.73535156 579.171875 C171.71635607 600.31596908 143.6044585 614.8987159 115.84472656 622.86328125 C115.1210791 623.07581543 114.39743164 623.28834961 113.65185547 623.50732422 C55.78061167 640.0924501 -11.08720058 630.62744678 -63.53027344 601.98828125 C-82.0720843 591.51540056 -97.96013077 578.17280139 -113.03027344 563.23828125 C-114.20759033 562.07510376 -114.20759033 562.07510376 -115.40869141 560.88842773 C-123.30274238 552.94999052 -130.04062237 544.26123153 -136.46777344 535.11328125 C-136.97888672 534.39785156 -137.49 533.68242188 -138.01660156 532.9453125 C-146.51071146 520.90554685 -146.51071146 520.90554685 -145.15527344 512.86328125 C-143.10120625 506.78942667 -139.98416864 502.77772885 -134.15527344 499.86328125 C-132.27246094 499.58984375 -132.27246094 499.58984375 -130.03027344 499.48828125 C-129.30582031 499.43929687 -128.58136719 499.3903125 -127.83496094 499.33984375 C-120.69870366 500.73380654 -116.25622333 505.43305113 -112.23681641 511.19482422 C-111.45395264 512.36102295 -111.45395264 512.36102295 -110.65527344 513.55078125 C-109.52413429 515.17304305 -108.3913323 516.79414673 -107.25683594 518.4140625 C-106.7209082 519.1870166 -106.18498047 519.9599707 -105.6328125 520.75634766 C-99.5552761 529.42276192 -92.41245 537.18622519 -85.15527344 544.86328125 C-84.34058594 545.73210938 -83.52589844 546.6009375 -82.68652344 547.49609375 C-52.02042527 579.25740971 -6.16686545 597.03828897 37.62573242 598.02441406 C39.27028567 598.04419361 40.91491971 598.05797855 42.55957031 598.06640625 C43.45478897 598.07210632 44.35000763 598.0778064 45.27235413 598.0836792 C47.15722499 598.09305896 49.04211174 598.09963492 50.92700195 598.10351562 C53.74428641 598.11315148 56.56081777 598.14421421 59.37792969 598.17578125 C71.48530013 598.24592178 82.96243048 597.15503027 94.84472656 594.86328125 C95.57386765 594.72750671 96.30300873 594.59173218 97.054245 594.45184326 C121.01923327 589.96929787 143.55594769 578.90459113 161.84472656 562.86328125 C162.67359375 562.17878906 163.50246094 561.49429688 164.35644531 560.7890625 C171.61616682 554.62342775 177.19555097 547.4679407 182.84472656 539.86328125 C183.47121094 539.04214844 184.09769531 538.22101562 184.74316406 537.375 C193.62251096 525.3065919 200.05718463 511.92694348 205.71972656 498.11328125 C206.17186523 497.0137915 206.62400391 495.91430176 207.08984375 494.78149414 C212.78303761 480.53258892 216.18270387 465.92532419 218.84472656 450.86328125 C218.98265625 450.09242188 219.12058594 449.3215625 219.26269531 448.52734375 C225.07788517 414.78772736 225.47812264 379.56897352 226.1640625 345.40673828 C227.75658546 266.26765604 227.75658546 266.26765604 231.84472656 229.86328125 C231.98104492 228.63673828 232.11736328 227.41019531 232.2578125 226.14648438 C236.75409454 187.08178915 245.51931155 147.68075169 266.60253906 113.9375 C267.98808836 111.79339406 267.98808836 111.79339406 268.84472656 108.86328125 C268.01146851 108.83548584 268.01146851 108.83548584 267.16137695 108.80712891 C256.97282083 108.18416193 247.17779918 105.59349899 237.28222656 103.23828125 C235.34604296 102.78216579 233.40984494 102.32611153 231.47363281 101.87011719 C213.06233067 97.51292076 194.75074921 92.89546143 176.74462891 87.05932617 C171.02273657 85.20718493 165.26192131 83.5432867 159.46972656 81.92578125 C152.35512545 79.93227697 145.33894417 77.7443746 138.34472656 75.36328125 C131.61740335 73.07516044 124.87731149 70.95799957 118.03222656 69.05078125 C108.79048988 66.47192045 99.6258532 63.66565341 90.46972656 60.80078125 C89.80371429 60.59295013 89.13770203 60.38511902 88.45150757 60.17098999 C81.24773094 57.92102595 74.06733353 55.61589323 66.91503906 53.20703125 C61.67469998 51.45008922 56.43872085 49.83079037 51.09472656 48.42578125 C44.89101645 46.75165781 38.76851889 44.9096422 32.65722656 42.92578125 C22.67543947 39.70414077 12.55404222 37.09938919 2.39208984 34.51416016 C-0.90056413 33.67285141 -4.18463463 32.80352598 -7.46777344 31.92578125 C-9.22541016 31.45785156 -9.22541016 31.45785156 -11.01855469 30.98046875 C-14.27101849 30.10779661 -17.51599914 29.20952257 -20.76074219 28.30859375 C-43.60951594 22.00246785 -66.64508063 16.17538952 -90.18164062 13.13085938 C-92.93502644 12.75756511 -95.66727173 12.272604 -98.40527344 11.80078125 C-154.77803921 3.23327279 -217.62298835 9.5617616 -265.07324219 43.56640625 C-269.53729888 46.89323177 -273.92152796 50.2462352 -278.15527344 53.86328125 C-279.03570313 54.59804688 -279.91613281 55.3328125 -280.82324219 56.08984375 C-300.96350757 73.53148401 -314.54410169 98.32870255 -321.78027344 123.73828125 C-321.98676514 124.45741699 -322.19325684 125.17655273 -322.40600586 125.91748047 C-325.43492088 136.94760498 -326.48384255 147.69849229 -326.41601562 159.09863281 C-326.405321 161.22880739 -326.41596143 163.35813248 -326.42871094 165.48828125 C-326.44409694 178.08832588 -325.23097795 190.19658188 -321.09277344 202.17578125 C-320.78895752 203.06458984 -320.4851416 203.95339844 -320.17211914 204.86914062 C-309.71761053 234.31964663 -289.2606968 255.9937938 -261.44824219 269.890625 C-244.56745601 277.90604458 -226.2755011 280.44178322 -207.78027344 280.23828125 C-206.63123535 280.23080368 -206.63123535 280.23080368 -205.45898438 280.22317505 C-180.07806466 280.02976324 -159.46828928 273.9142976 -137.15527344 261.86328125 C-136.24519531 261.37214844 -135.33511719 260.88101562 -134.39746094 260.375 C-117.19384965 250.55621864 -102.10569971 236.52578682 -90.43896484 220.61181641 C-89.17799863 218.89423557 -87.89327828 217.1967614 -86.60449219 215.5 C-78.72602163 204.97503449 -72.2164097 193.61468857 -66.73730469 181.66796875 C-66.34486572 180.81291748 -65.95242676 179.95786621 -65.5480957 179.0769043 C-64.80739807 177.43964763 -64.0816155 175.79552831 -63.3737793 174.14379883 C-60.68863062 168.14401844 -57.65635105 165.31403558 -52.28027344 161.55078125 C-47.95846387 160.15254874 -44.11339084 160.01860315 -39.96386719 161.80859375 C-35.93985445 164.1651979 -32.72890908 166.33907878 -31.15527344 170.86328125 C-30.37445749 178.73397178 -31.67517089 184.7520553 -34.96777344 191.86328125 C-35.57020874 193.21015015 -35.57020874 193.21015015 -36.18481445 194.58422852 C-42.93603011 209.31850141 -51.36952238 222.96938206 -61.15527344 235.86328125 C-61.57744141 236.42821289 -61.99960938 236.99314453 -62.43457031 237.57519531 C-73.12729464 251.84556048 -85.04132521 264.91622131 -99.15527344 275.86328125 C-99.69587402 276.28416016 -100.23647461 276.70503906 -100.79345703 277.13867188 C-115.56369075 288.48765051 -131.65667062 296.57159906 -149.0625 303.06738281 C-150.74222384 303.70619519 -152.40191923 304.39755802 -154.05371094 305.10546875 C-163.84220271 309.19192648 -174.74530407 310.2387441 -185.15527344 311.86328125 C-186.32574219 312.06308594 -187.49621094 312.26289062 -188.70214844 312.46875 C-193.36324892 313.00129655 -197.96776534 313.01218264 -202.65527344 312.98828125 C-204.11839966 312.98211792 -204.11839966 312.98211792 -205.61108398 312.97583008 C-244.49238826 312.6778031 -280.48626035 301.75094954 -310.15527344 275.86328125 C-310.88230469 275.25742187 -311.60933594 274.6515625 -312.35839844 274.02734375 C-317.11998379 270.01089198 -321.21944907 265.68627914 -325.15527344 260.86328125 C-326.31542969 259.45949219 -326.31542969 259.45949219 -327.49902344 258.02734375 C-346.02569663 235.1129645 -358.14700027 204.59281935 -358.39355469 175.0390625 C-358.40566231 173.62683662 -358.40566231 173.62683662 -358.41801453 172.18608093 C-358.43180148 170.19332689 -358.44254755 168.20054978 -358.45043945 166.20776367 C-358.46186279 164.20964421 -358.48215779 162.21155286 -358.51196289 160.21362305 C-358.71975464 146.24281999 -357.45771373 133.4396436 -354.15527344 119.86328125 C-353.82994271 118.46946509 -353.50520489 117.07551036 -353.18115234 115.68139648 C-342.48416494 70.95278783 -310.58840169 33.56469167 -272.19775391 9.64355469 C-194.62780654 -37.31238296 -98.2183651 -27.57427406 0 0 Z " fill="#FDFDFD" transform="translate(1251.1552734375,664.13671875)"/>
<path d="M0 0 C1.07633194 -0.00318237 2.15266388 -0.00636475 3.26161194 -0.00964355 C4.48396042 -0.0222522 5.7063089 -0.03486084 6.96569824 -0.04785156 C8.30400666 -0.04068473 9.64230985 -0.03247902 10.98060608 -0.02331543 C12.36004917 -0.02601254 13.7394904 -0.02989678 15.118927 -0.03491211 C18.01676959 -0.04081477 20.9141196 -0.03223232 23.81190491 -0.0135498 C27.49353858 0.00904928 31.17399348 -0.00375445 34.85558224 -0.02783966 C37.71016969 -0.04244284 40.56448802 -0.03762297 43.41908455 -0.02732849 C45.42616676 -0.0234214 47.43326013 -0.03541497 49.44030762 -0.04785156 C61.71412257 0.07588229 72.46737641 2.57672416 81.32826233 11.50793457 C83.66453487 14.35654758 85.56313978 17.277534 87.32826233 20.50793457 C87.66857483 21.10992676 88.00888733 21.71191895 88.35951233 22.33215332 C92.3700899 30.89176564 91.46881989 42.58079845 88.36341858 51.30480957 C84.537031 59.44851747 77.53766998 66.74985018 69.32826233 70.50793457 C69.99212952 70.99262207 70.6559967 71.47730957 71.33998108 71.97668457 C79.51615382 78.18341424 83.92246534 83.44732899 86.32826233 93.50793457 C86.6095302 96.27689819 86.68903236 99.03928761 86.76576233 101.82043457 C87.21099918 111.61988556 88.07603009 118.45170861 95.32826233 125.50793457 C95.84999564 128.76876777 95.85646847 130.54473513 94.26576233 133.44543457 C92.32826233 134.50793457 92.32826233 134.50793457 89.01576233 134.63293457 C83.54406015 132.9636017 81.01211903 129.60046516 78.32435608 124.66418457 C75.8414971 119.19469811 75.25427155 114.08396933 75.0894928 108.17492676 C74.70278942 95.52294232 74.70278942 95.52294232 68.71888733 84.64855957 C61.93350115 78.34355471 54.67550344 78.19029158 45.80482483 78.09387207 C44.70351227 78.07450592 43.60219971 78.05513977 42.46751404 78.03518677 C38.96284134 77.97558529 35.45813545 77.92908295 31.95326233 77.88293457 C29.57173788 77.84473695 27.19022699 77.80568418 24.80873108 77.76574707 C18.98202879 77.66989969 13.15524434 77.58479556 7.32826233 77.50793457 C7.33714478 78.16304016 7.34602722 78.81814575 7.35517883 79.49310303 C7.44361282 86.30606367 7.50398043 93.1188615 7.54798889 99.93225098 C7.56811505 102.4756126 7.5954187 105.0189279 7.63002014 107.56213379 C7.67849203 111.21605861 7.70122149 114.86937213 7.71888733 118.52355957 C7.73953247 119.66222473 7.76017761 120.80088989 7.78144836 121.97406006 C7.78175049 123.03485779 7.78205261 124.09565552 7.78236389 125.18859863 C7.79124634 126.12125549 7.80012878 127.05391235 7.8092804 128.01483154 C7.17992227 131.27677689 5.89027644 132.46254149 3.32826233 134.50793457 C0.82826233 135.00793457 0.82826233 135.00793457 -1.67173767 134.50793457 C-4.20097692 132.47982556 -5.51451969 131.27704875 -6.17230892 128.05912781 C-6.17251821 127.13884293 -6.17272749 126.21855804 -6.17294312 125.27038574 C-6.18277725 124.21048431 -6.19261139 123.15058289 -6.20274353 122.05856323 C-6.19307556 120.90103546 -6.18340759 119.74350769 -6.17344666 118.55090332 C-6.17884964 117.32779449 -6.18425262 116.10468567 -6.18981934 114.84451294 C-6.20018419 111.49299055 -6.19260401 108.14245523 -6.17610812 104.79101944 C-6.16225223 101.28283541 -6.16871831 97.77468101 -6.17224121 94.26647949 C-6.17494292 88.37520074 -6.16147128 82.48412577 -6.13829041 76.59289551 C-6.11168074 69.78315912 -6.10993362 62.97376345 -6.12167877 56.16399288 C-6.13246051 49.61149171 -6.12626642 43.05911371 -6.11212349 36.50662231 C-6.10636707 33.71881191 -6.10644362 30.93109175 -6.11118889 28.14328003 C-6.11685014 24.25037762 -6.09763442 20.35781572 -6.07579041 16.46496582 C-6.08029205 15.30743805 -6.0847937 14.14991028 -6.08943176 12.95730591 C-6.07952713 11.89740448 -6.0696225 10.83750305 -6.05941772 9.7454834 C-6.05698783 8.82519852 -6.05455793 7.90491364 -6.05205441 6.95674133 C-5.43070185 2.95593831 -4.03135289 0.76641637 0 0 Z " fill="#F8F8F8" transform="translate(1176.6717376708984,1324.4920654296875)"/>
<path d="M0 0 C1.0415625 0.05929687 2.083125 0.11859375 3.15625 0.1796875 C16.1122529 1.77967581 28.19727746 9.77406965 37 19 C37.5465625 19.52722656 38.093125 20.05445313 38.65625 20.59765625 C52.91958383 35.43000606 55.54124432 55.61725845 55.26953125 75.19140625 C54.693781 92.75604312 46.78131086 109.84142494 34.29296875 122.1484375 C20.39058056 134.80841293 2.99239789 138.74034472 -15.26953125 138.3125 C-30.86728122 137.55974311 -45.02328038 129.84681762 -56 119 C-68.4333592 103.94096246 -73.54975135 86.94116509 -73.4375 67.5625 C-73.45748047 66.34240234 -73.47746094 65.12230469 -73.49804688 63.86523438 C-73.48825014 45.43757482 -65.84835134 29.21147608 -53.1328125 16.0703125 C-37.82301775 1.77693566 -20.0906697 -1.14726396 0 0 Z M-34 17 C-34.88558594 17.53109375 -35.77117187 18.0621875 -36.68359375 18.609375 C-48.56329986 26.30558877 -55.80049632 37.65098811 -59.94921875 51.0703125 C-63.43997483 68.84593566 -61.46579132 88.26326024 -52.24609375 103.9921875 C-44.18795866 115.74566939 -34.31442124 121.56185959 -21 126 C-17.79584551 126.22886818 -14.58649282 126.18516945 -11.375 126.1875 C-10.51003906 126.19974609 -9.64507812 126.21199219 -8.75390625 126.22460938 C5.47918114 126.25661782 17.42784499 121.41917038 27.75 111.4609375 C39.42087184 98.69592143 42.42273755 84.52039351 42.5625 67.75 C42.58461548 65.99248413 42.58461548 65.99248413 42.60717773 64.19946289 C42.42770759 48.94664967 36.7949091 36.41524801 26.46484375 25.36328125 C13.63257677 13.05976061 1.05043219 11.42112951 -16.07421875 11.66015625 C-22.90737927 11.91734689 -28.18974559 13.35362798 -34 17 Z " fill="#F9F9F9" transform="translate(484,1323)"/>
<path d="M0 0 C1.0820874 0.00427002 2.1641748 0.00854004 3.27905273 0.01293945 C16.29155591 0.28610453 30.24937729 2.93687729 39.8125 12.5 C40.17273622 15.30984248 40.19582602 16.88241919 38.6875 19.3125 C35.77404103 21.15769068 34.25201802 21.00029353 30.8125 20.5 C28.38912291 19.36992778 26.07691339 18.1333833 23.765625 16.7890625 C15.84401456 13.33121667 7.40003557 13.13586684 -1.125 13.125 C-2.13240234 13.10050781 -3.13980469 13.07601563 -4.17773438 13.05078125 C-17.32703249 13.00004441 -30.23029322 18.73408106 -39.9375 27.625 C-52.39066968 41.17697877 -55.77602489 56.23649253 -55.46484375 74.04296875 C-54.8376339 88.45631345 -48.78017132 102.6190892 -38.1875 112.5 C-23.76665057 124.1899909 -8.3488072 126.84388649 9.8125 125.5 C17.58133784 124.31477641 23.52542697 121.73869913 30.8125 118.5 C31.1425 105.96 31.4725 93.42 31.8125 80.5 C21.08705266 80.61863959 21.08705266 80.61863959 10.36206055 80.77026367 C9.01612053 80.77902661 7.67017256 80.78667101 6.32421875 80.79296875 C5.27844666 80.8159906 5.27844666 80.8159906 4.21154785 80.83947754 C1.30339858 80.84105206 -0.69140846 80.83925417 -3.13354492 79.16918945 C-4.79020274 76.54547635 -4.56490385 74.51923082 -4.1875 71.5 C-2.66705151 69.51015829 -1.77531868 68.61845861 0.7028656 68.11904907 C1.76731651 68.1154689 1.76731651 68.1154689 2.85327148 68.11181641 C3.66098495 68.10235992 4.46869843 68.09290344 5.30088806 68.0831604 C6.16968094 68.08923309 7.03847382 68.09530579 7.93359375 68.1015625 C8.82990005 68.09869232 9.72620636 68.09582214 10.64967346 68.09286499 C12.54518261 68.09082365 14.44071279 68.09635841 16.33618164 68.10888672 C19.23566937 68.12492075 22.13375918 68.10905026 25.03320312 68.08984375 C26.87500308 68.09182654 28.71680216 68.09567095 30.55859375 68.1015625 C31.4253624 68.09548981 32.29213104 68.08941711 33.18516541 68.0831604 C34.40146385 68.09734512 34.40146385 68.09734512 35.64233398 68.11181641 C36.70797829 68.11539658 36.70797829 68.11539658 37.79515076 68.11904907 C40.52694957 68.63491478 41.85888698 69.52798378 43.8125 71.5 C44.33389282 73.80123901 44.33389282 73.80123901 44.36181641 76.53466797 C44.39041245 78.07173904 44.39041245 78.07173904 44.41958618 79.63986206 C44.41776337 80.74612946 44.41594055 81.85239685 44.4140625 82.9921875 C44.42263275 84.13027863 44.431203 85.26836975 44.44003296 86.44094849 C44.45152659 88.85009092 44.45251483 91.25930277 44.44384766 93.66845703 C44.43753528 97.35439713 44.48439936 101.03711446 44.53515625 104.72265625 C44.53970305 107.06249594 44.54110885 109.40234428 44.5390625 111.7421875 C44.55748199 112.84440643 44.57590149 113.94662537 44.59487915 115.08224487 C44.50482434 122.53539078 44.50482434 122.53539078 42.53613281 125.27835083 C28.12664913 137.6214079 6.9056833 139.78163032 -11.1875 138.5 C-29.07504586 135.54837712 -45.51316527 125.59643436 -56.41015625 111.15625 C-65.06452437 98.2222493 -68.93789095 84.60700865 -68.75 69.125 C-68.73976807 67.85148682 -68.72953613 66.57797363 -68.71899414 65.26586914 C-68.50544558 55.80863223 -67.47320596 48.04971215 -63.1875 39.5 C-62.66800781 38.44296875 -62.14851562 37.3859375 -61.61328125 36.296875 C-53.12416855 20.54551437 -38.78283719 8.04040928 -21.56469727 2.68408203 C-14.31668531 0.69730533 -7.50118941 -0.04541171 0 0 Z " fill="#F9F9F9" transform="translate(626.1875,1322.5)"/>
<path d="M0 0 C1.66621399 1.17512512 1.66621399 1.17512512 3 3 C3.36076355 5.52470398 3.36076355 5.52470398 3.34057617 8.57299805 C3.34021362 9.72989136 3.33985107 10.88678467 3.33947754 12.07873535 C3.32412964 13.29411987 3.30878174 14.50950439 3.29296875 15.76171875 C3.28994751 16.87921509 3.28692627 17.99671143 3.28381348 19.14807129 C3.26810115 23.32797462 3.22621728 27.50774645 3.1875 31.6875 C3.125625 41.030625 3.06375 50.37375 3 60 C28.74 60 54.48 60 81 60 C80.88125919 41.37621258 80.88125919 41.37621258 80.72973633 22.75268555 C80.72097662 20.42236746 80.71333147 18.09204479 80.70703125 15.76171875 C80.6840094 13.93864197 80.6840094 13.93864197 80.66052246 12.07873535 C80.65997864 10.34339539 80.65997864 10.34339539 80.65942383 8.57299805 C80.64943108 7.06409248 80.64943108 7.06409248 80.63923645 5.52470398 C81 3 81 3 82.29862976 1.17121887 C85.10982701 -0.76400204 87.70811945 -0.29926187 91 0 C93.57123349 2.57123349 93.25293843 3.54433998 93.26069641 7.11766052 C93.26778122 8.20150024 93.27486603 9.28533997 93.28216553 10.40202332 C93.27968811 11.5963649 93.27721069 12.79070648 93.2746582 14.02124023 C93.27976913 15.27492401 93.28488007 16.52860779 93.29014587 17.82028198 C93.30168913 21.26454917 93.30411148 24.70857622 93.30158257 28.1528461 C93.30051469 31.02571217 93.30539157 33.8985559 93.310188 36.7714172 C93.32129292 43.54790507 93.32171515 50.32433751 93.31567383 57.10083008 C93.3096328 64.09683712 93.32194594 71.0926431 93.3432439 78.08861583 C93.36084479 84.09036495 93.36686364 90.09204999 93.36360615 96.09382397 C93.36179063 99.68049365 93.36445595 103.26701994 93.37832069 106.85366631 C93.39319911 110.85236592 93.38394225 114.85065491 93.37231445 118.84936523 C93.37995819 120.04168259 93.38760193 121.23399994 93.39547729 122.46244812 C93.38846298 123.54910767 93.38144867 124.63576721 93.3742218 125.75535583 C93.37438954 126.70128318 93.37455729 127.64721052 93.37473011 128.62180233 C93 131 93 131 91.66411114 132.80044651 C89.05022429 134.68463382 87.11771567 134.45466687 84 134 C81.77491846 131.7826005 81.0543082 130.40959355 80.63923645 127.27911377 C80.64589828 126.23986755 80.65256012 125.20062134 80.65942383 124.12988281 C80.65978638 122.93250488 80.66014893 121.73512695 80.66052246 120.50146484 C80.67587036 119.2480127 80.69121826 117.99456055 80.70703125 116.703125 C80.71005249 115.54731934 80.71307373 114.39151367 80.71618652 113.20068359 C80.73188105 108.88369821 80.77376499 104.56684013 80.8125 100.25 C80.874375 90.5975 80.93625 80.945 81 71 C55.26 71 29.52 71 3 71 C3.11874777 90.61108549 3.11874777 90.61108549 3.27026367 110.22192383 C3.27902315 112.67528901 3.28666836 115.12865853 3.29296875 117.58203125 C3.30831665 118.86219116 3.32366455 120.14235107 3.33947754 121.46130371 C3.33984009 122.67910522 3.34020264 123.89690674 3.34057617 125.15161133 C3.34723801 126.21084305 3.35389984 127.27007477 3.36076355 128.36140442 C3 131 3 131 1.66621399 132.83818054 C-0.95949514 134.66903779 -2.89951701 134.45215377 -6 134 C-8.92609685 131.01496041 -9.37595008 128.82497816 -9.38095093 124.71775818 C-9.3894104 123.64799744 -9.39786987 122.57823669 -9.40658569 121.47605896 C-9.400513 120.30760941 -9.39444031 119.13915985 -9.38818359 117.93530273 C-9.39344055 116.70083405 -9.39869751 115.46636536 -9.40411377 114.19448853 C-9.41505521 110.81220663 -9.4124912 107.43047526 -9.40297651 104.04822421 C-9.39537936 100.50887231 -9.40242552 96.96954387 -9.40713501 93.43019104 C-9.4125917 87.4876788 -9.40540254 81.54527845 -9.39111328 75.6027832 C-9.37477933 68.73055388 -9.38008087 61.85859147 -9.3965925 54.9863686 C-9.41020094 49.08647896 -9.41213043 43.18666971 -9.40427649 37.28676945 C-9.39959737 33.76273889 -9.39898173 30.23883385 -9.40888596 26.71481133 C-9.41915107 22.78820265 -9.40492867 18.86189371 -9.38818359 14.93530273 C-9.39425629 13.76482895 -9.40032898 12.59435516 -9.40658569 11.38841248 C-9.39389648 9.7880011 -9.39389648 9.7880011 -9.38095093 8.15525818 C-9.37981985 7.22667716 -9.37868877 6.29809614 -9.37752342 5.3413763 C-9 3 -9 3 -7.66369057 1.20123386 C-5.07940749 -0.66469506 -3.08906551 -0.38613319 0 0 Z " fill="#FBFBFB" transform="translate(933,1325)"/>
<path d="M0 0 C0.70607895 0.01123901 1.4121579 0.02247803 2.13963318 0.03405762 C3.26200882 0.02836258 3.26200882 0.02836258 4.40705872 0.02255249 C6.88141234 0.01514022 9.35459286 0.03653561 11.82884216 0.05895996 C13.54612083 0.06134386 15.26340213 0.06224982 16.98068237 0.06173706 C20.57956773 0.06486609 24.17805499 0.08144041 27.77684021 0.10827637 C32.3963189 0.14228205 37.01536049 0.14990432 41.63494968 0.148386 C45.18050328 0.14892907 48.72596078 0.15988568 52.27148247 0.17438889 C53.97517609 0.18076506 55.67888062 0.18469769 57.38258553 0.1861763 C59.76012463 0.19049925 62.13719444 0.20797718 64.51463318 0.22937012 C65.57678795 0.22801056 65.57678795 0.22801056 66.66040039 0.22662354 C71.53347725 0.29093879 71.53347725 0.29093879 73.76243591 2.51989746 C74.07493591 6.01989746 74.07493591 6.01989746 73.76243591 9.51989746 C70.17727563 11.91000431 68.61976624 11.76316348 64.36326599 11.74694824 C63.71909225 11.7472403 63.07491852 11.74753235 62.41122437 11.74783325 C60.28466768 11.7464413 58.15846255 11.73088684 56.03196716 11.71520996 C54.5565205 11.71147934 53.08107136 11.7086326 51.60562134 11.70663452 C47.72412769 11.69900188 43.84278395 11.67935663 39.96134949 11.65722656 C35.3032618 11.63316115 30.64512396 11.62398538 25.98699188 11.61231995 C18.91203566 11.59293193 11.83740831 11.55460706 4.76243591 11.51989746 C4.76243591 27.35989746 4.76243591 43.19989746 4.76243591 59.51989746 C8.83071716 59.47349121 12.89899841 59.42708496 17.09056091 59.37927246 C20.33724475 59.35354323 23.58389973 59.33185406 26.83062744 59.31289673 C30.25651044 59.2917854 33.68199675 59.26358168 37.10765076 59.21813965 C41.03940522 59.16631128 44.97099849 59.14694168 48.90306091 59.12927246 C50.12922119 59.10862732 51.35538147 59.08798218 52.61869812 59.06671143 C53.75957886 59.0664093 54.90045959 59.06610718 56.07591248 59.0657959 C57.58148712 59.05247223 57.58148712 59.05247223 59.11747742 59.03887939 C62.50454621 59.6548593 63.70592829 60.80377119 65.76243591 63.51989746 C65.69993591 66.64489746 65.69993591 66.64489746 64.76243591 69.51989746 C61.35561028 71.79111455 60.18446407 71.76458633 56.18943787 71.74694824 C55.0484816 71.74679718 53.90752533 71.74664612 52.73199463 71.74649048 C51.50067307 71.73616791 50.2693515 71.72584534 49.00071716 71.71520996 C47.10932259 71.71096512 47.10932259 71.71096512 45.17971802 71.70663452 C41.83083169 71.69732871 38.48221801 71.67936449 35.13340759 71.65722656 C31.71485288 71.63675132 28.29626914 71.6275196 24.87767029 71.61755371 C18.17243854 71.59717926 11.46768449 71.55803158 4.76243591 71.51989746 C4.76243591 88.67989746 4.76243591 105.83989746 4.76243591 123.51989746 C9.57579529 123.49669434 14.38915466 123.47349121 19.34837341 123.44958496 C22.39264962 123.43936927 25.43690477 123.42974159 28.48118591 123.42224121 C33.31619134 123.4102726 38.15112122 123.39609416 42.98606873 123.36901855 C46.88288324 123.34733234 50.77961678 123.33533779 54.67648697 123.33014297 C56.16528728 123.3264396 57.65408302 123.31920808 59.14284897 123.30843735 C61.22366258 123.29397827 63.30413897 123.29191713 65.38499451 123.29284668 C66.57080109 123.28840546 67.75660767 123.28396423 68.97834778 123.27938843 C71.76243591 123.51989746 71.76243591 123.51989746 73.76243591 125.51989746 C74.07493591 129.01989746 74.07493591 129.01989746 73.76243591 132.51989746 C70.02790476 135.0095849 68.06516353 134.78451493 63.60057068 134.8104248 C62.87503998 134.81714203 62.14950928 134.82385925 61.4019928 134.83078003 C59.00253969 134.84978497 56.60336586 134.85368532 54.20384216 134.85583496 C52.53619267 134.86226073 50.86854432 134.86898893 49.20089722 134.87600708 C45.70470058 134.88798577 42.2086028 134.89168726 38.71238708 134.89050293 C34.23195756 134.89029961 29.7521614 134.91761244 25.27188206 134.95204735 C21.82748501 134.97428155 18.3832413 134.97834156 14.93877983 134.97728348 C13.28694918 134.97964428 11.63511461 134.98849477 9.98335457 135.00394821 C7.67301648 135.02354054 5.36405585 135.01779826 3.05369568 135.0057373 C1.7392598 135.00858734 0.42482391 135.01143738 -0.92944336 135.01437378 C-4.87979778 134.42390056 -5.79231697 133.59754043 -8.23756409 130.51989746 C-8.73813534 128.0710907 -8.73813534 128.0710907 -8.73876953 125.28234863 C-8.74860367 124.2224472 -8.75843781 123.16254578 -8.76856995 122.07052612 C-8.75890198 120.91299835 -8.74923401 119.75547058 -8.73927307 118.56286621 C-8.74467606 117.33975739 -8.75007904 116.11664856 -8.75564575 114.85647583 C-8.76601061 111.50495344 -8.75843043 108.15441812 -8.74193454 104.80298233 C-8.72807865 101.2947983 -8.73454472 97.7866439 -8.73806763 94.27844238 C-8.74076934 88.38716363 -8.7272977 82.49608866 -8.70411682 76.6048584 C-8.67750716 69.79512201 -8.67576003 62.98572634 -8.68750519 56.17595577 C-8.69828693 49.6234546 -8.69209284 43.0710766 -8.67794991 36.51858521 C-8.67219349 33.7307748 -8.67227004 30.94305464 -8.6770153 28.15524292 C-8.68267656 24.26234051 -8.66346083 20.36977861 -8.64161682 16.47692871 C-8.64611847 15.31940094 -8.65062012 14.16187317 -8.65525818 12.9692688 C-8.64535355 11.90936737 -8.63544891 10.84946594 -8.62524414 9.75744629 C-8.62281425 8.83716141 -8.62038435 7.91687653 -8.61788082 6.96870422 C-7.77709945 1.55502948 -5.29660084 0.06845086 0 0 Z " fill="#F8F7F7" transform="translate(1070.237564086914,1324.4801025390625)"/>
<path d="M0 0 C0.70607895 0.01123901 1.4121579 0.02247803 2.13963318 0.03405762 C3.26200882 0.02836258 3.26200882 0.02836258 4.40705872 0.02255249 C6.88141234 0.01514022 9.35459286 0.03653561 11.82884216 0.05895996 C13.54612083 0.06134386 15.26340213 0.06224982 16.98068237 0.06173706 C20.57956773 0.06486609 24.17805499 0.08144041 27.77684021 0.10827637 C32.3963189 0.14228205 37.01536049 0.14990432 41.63494968 0.148386 C45.18050328 0.14892907 48.72596078 0.15988568 52.27148247 0.17438889 C53.97517609 0.18076506 55.67888062 0.18469769 57.38258553 0.1861763 C59.76012463 0.19049925 62.13719444 0.20797718 64.51463318 0.22937012 C65.57678795 0.22801056 65.57678795 0.22801056 66.66040039 0.22662354 C71.53347725 0.29093879 71.53347725 0.29093879 73.76243591 2.51989746 C74.07493591 6.01989746 74.07493591 6.01989746 73.76243591 9.51989746 C70.17727563 11.91000431 68.61976624 11.76316348 64.36326599 11.74694824 C63.71909225 11.7472403 63.07491852 11.74753235 62.41122437 11.74783325 C60.28466768 11.7464413 58.15846255 11.73088684 56.03196716 11.71520996 C54.5565205 11.71147934 53.08107136 11.7086326 51.60562134 11.70663452 C47.72412769 11.69900188 43.84278395 11.67935663 39.96134949 11.65722656 C35.3032618 11.63316115 30.64512396 11.62398538 25.98699188 11.61231995 C18.91203566 11.59293193 11.83740831 11.55460706 4.76243591 11.51989746 C4.76243591 27.35989746 4.76243591 43.19989746 4.76243591 59.51989746 C8.83071716 59.47349121 12.89899841 59.42708496 17.09056091 59.37927246 C20.33724475 59.35354323 23.58389973 59.33185406 26.83062744 59.31289673 C30.25651044 59.2917854 33.68199675 59.26358168 37.10765076 59.21813965 C41.03940522 59.16631128 44.97099849 59.14694168 48.90306091 59.12927246 C50.12922119 59.10862732 51.35538147 59.08798218 52.61869812 59.06671143 C53.75957886 59.0664093 54.90045959 59.06610718 56.07591248 59.0657959 C57.58148712 59.05247223 57.58148712 59.05247223 59.11747742 59.03887939 C62.50454621 59.6548593 63.70592829 60.80377119 65.76243591 63.51989746 C65.69993591 66.64489746 65.69993591 66.64489746 64.76243591 69.51989746 C61.35561028 71.79111455 60.18446407 71.76458633 56.18943787 71.74694824 C55.0484816 71.74679718 53.90752533 71.74664612 52.73199463 71.74649048 C51.50067307 71.73616791 50.2693515 71.72584534 49.00071716 71.71520996 C47.10932259 71.71096512 47.10932259 71.71096512 45.17971802 71.70663452 C41.83083169 71.69732871 38.48221801 71.67936449 35.13340759 71.65722656 C31.71485288 71.63675132 28.29626914 71.6275196 24.87767029 71.61755371 C18.17243854 71.59717926 11.46768449 71.55803158 4.76243591 71.51989746 C4.76243591 88.67989746 4.76243591 105.83989746 4.76243591 123.51989746 C9.57579529 123.49669434 14.38915466 123.47349121 19.34837341 123.44958496 C22.39264962 123.43936927 25.43690477 123.42974159 28.48118591 123.42224121 C33.31619134 123.4102726 38.15112122 123.39609416 42.98606873 123.36901855 C46.88288324 123.34733234 50.77961678 123.33533779 54.67648697 123.33014297 C56.16528728 123.3264396 57.65408302 123.31920808 59.14284897 123.30843735 C61.22366258 123.29397827 63.30413897 123.29191713 65.38499451 123.29284668 C66.57080109 123.28840546 67.75660767 123.28396423 68.97834778 123.27938843 C71.76243591 123.51989746 71.76243591 123.51989746 73.76243591 125.51989746 C74.07493591 129.01989746 74.07493591 129.01989746 73.76243591 132.51989746 C70.02790476 135.0095849 68.06516353 134.78451493 63.60057068 134.8104248 C62.87503998 134.81714203 62.14950928 134.82385925 61.4019928 134.83078003 C59.00253969 134.84978497 56.60336586 134.85368532 54.20384216 134.85583496 C52.53619267 134.86226073 50.86854432 134.86898893 49.20089722 134.87600708 C45.70470058 134.88798577 42.2086028 134.89168726 38.71238708 134.89050293 C34.23195756 134.89029961 29.7521614 134.91761244 25.27188206 134.95204735 C21.82748501 134.97428155 18.3832413 134.97834156 14.93877983 134.97728348 C13.28694918 134.97964428 11.63511461 134.98849477 9.98335457 135.00394821 C7.67301648 135.02354054 5.36405585 135.01779826 3.05369568 135.0057373 C1.7392598 135.00858734 0.42482391 135.01143738 -0.92944336 135.01437378 C-4.87979778 134.42390056 -5.79231697 133.59754043 -8.23756409 130.51989746 C-8.73813534 128.0710907 -8.73813534 128.0710907 -8.73876953 125.28234863 C-8.74860367 124.2224472 -8.75843781 123.16254578 -8.76856995 122.07052612 C-8.75890198 120.91299835 -8.74923401 119.75547058 -8.73927307 118.56286621 C-8.74467606 117.33975739 -8.75007904 116.11664856 -8.75564575 114.85647583 C-8.76601061 111.50495344 -8.75843043 108.15441812 -8.74193454 104.80298233 C-8.72807865 101.2947983 -8.73454472 97.7866439 -8.73806763 94.27844238 C-8.74076934 88.38716363 -8.7272977 82.49608866 -8.70411682 76.6048584 C-8.67750716 69.79512201 -8.67576003 62.98572634 -8.68750519 56.17595577 C-8.69828693 49.6234546 -8.69209284 43.0710766 -8.67794991 36.51858521 C-8.67219349 33.7307748 -8.67227004 30.94305464 -8.6770153 28.15524292 C-8.68267656 24.26234051 -8.66346083 20.36977861 -8.64161682 16.47692871 C-8.64611847 15.31940094 -8.65062012 14.16187317 -8.65525818 12.9692688 C-8.64535355 11.90936737 -8.63544891 10.84946594 -8.62524414 9.75744629 C-8.62281425 8.83716141 -8.62038435 7.91687653 -8.61788082 6.96870422 C-7.77709945 1.55502948 -5.29660084 0.06845086 0 0 Z " fill="#F8F7F7" transform="translate(707.2375640869141,1324.4801025390625)"/>
<path d="M0 0 C8.04375 -0.0825 16.0875 -0.165 24.375 -0.25 C26.89431152 -0.28641602 29.41362305 -0.32283203 32.00927734 -0.36035156 C34.0348221 -0.37204804 36.06037634 -0.38223758 38.0859375 -0.390625 C39.62858276 -0.4213208 39.62858276 -0.4213208 41.20239258 -0.45263672 C49.4121339 -0.45655078 55.78167628 1.46900577 62.8125 5.6875 C68.551089 11.75400837 71.39432854 18.83224479 71.2734375 27.11328125 C70.4156662 36.16889537 67.03359239 44.11503863 60 50 C54.9739167 53.16901943 50.14329413 55.12890307 44.16137695 55.11352539 C43.16690552 55.11340454 42.17243408 55.11328369 41.14782715 55.11315918 C39.58385193 55.10548523 39.58385193 55.10548523 37.98828125 55.09765625 C36.54793518 55.09614563 36.54793518 55.09614563 35.07849121 55.09460449 C31.48981533 55.08937051 27.90115647 55.07540925 24.3125 55.0625 C16.289375 55.041875 8.26625 55.02125 0 55 C0 36.85 0 18.7 0 0 Z " fill="#363333" transform="translate(1184,1336)"/>
<path d="M0 0 C4.1356083 1.76982364 6.04162049 4.93486382 8.62109375 8.5234375 C9.18175537 9.28003662 9.74241699 10.03663574 10.32006836 10.81616211 C12.12050535 13.25125501 13.90197469 15.69955441 15.68359375 18.1484375 C16.86181558 19.74717494 18.0414923 21.34484125 19.22265625 22.94140625 C21.58164376 26.13226618 23.93392465 29.327896 26.28125 32.52734375 C29.38769367 36.75543703 32.52825295 40.95676313 35.68359375 45.1484375 C44.35923356 56.68111533 52.88209452 68.32673839 61.41577148 79.96459961 C61.92365959 80.65720634 62.4315477 81.34981308 62.95482635 82.0634079 C64.19776434 83.75840639 65.44068119 85.45342037 66.68359375 87.1484375 C66.69239311 85.57989265 66.69239311 85.57989265 66.70137024 83.97966003 C66.75852957 74.13534178 66.83125536 64.29124588 66.91930866 54.44715405 C66.96407758 49.38592806 67.00331922 44.32478379 67.0300293 39.26342773 C67.05599734 34.38090214 67.0963533 29.49868992 67.14678001 24.6163578 C67.16349283 22.75163985 67.17497953 20.88686764 67.18120766 19.02208519 C67.19080094 16.41437127 67.21880194 13.80746708 67.2512207 11.19995117 C67.24906807 10.03793686 67.24906807 10.03793686 67.24687195 8.85244751 C67.33845545 3.6596632 67.33845545 3.6596632 69.04655457 1.1295929 C70.68359375 0.1484375 70.68359375 0.1484375 73.30859375 0.3984375 C75.68359375 1.1484375 75.68359375 1.1484375 76.68359375 2.1484375 C76.79494677 5.26794311 76.84100044 8.36551123 76.84472656 11.48583984 C76.85217392 12.95649651 76.85217392 12.95649651 76.85977173 14.4568634 C76.87443516 17.71604095 76.88120224 20.97516982 76.88671875 24.234375 C76.8924667 26.49020388 76.89822447 28.74603274 76.9039917 31.00186157 C76.91451356 35.73822254 76.92034848 40.47456648 76.92382812 45.2109375 C76.92931575 51.28991005 76.95334468 57.36865893 76.98180008 63.44756126 C77.00039307 68.10916813 77.00563027 72.77072078 77.007164 77.4323616 C77.01019855 79.67392831 77.01825387 81.91549388 77.03134918 84.15702438 C77.0483401 87.28893965 77.04654641 90.42030387 77.04003906 93.55224609 C77.04925385 94.48431381 77.05846863 95.41638153 77.06796265 96.37669373 C77.06239349 97.22920212 77.05682434 98.08171051 77.05108643 98.96005249 C77.05328627 100.07116929 77.05328627 100.07116929 77.05553055 101.20473289 C76.57566703 103.71245175 75.69712625 104.62099096 73.68359375 106.1484375 C70.42913031 106.10149812 69.06405242 105.50437442 66.68359375 103.27734375 C66.02359375 102.43042969 65.36359375 101.58351563 64.68359375 100.7109375 C63.90113281 99.70933594 63.11867188 98.70773437 62.3125 97.67578125 C58.79504964 92.99702246 55.38351279 88.24061425 51.98120117 83.4777832 C47.60094114 77.36105619 43.0758539 71.36686788 38.49609375 65.3984375 C33.30943222 58.63420704 28.24832215 51.8153422 23.33984375 44.84765625 C19.2164713 39.04834301 14.8897631 33.395531 10.59545898 27.72241211 C9.97356689 26.89878174 9.3516748 26.07515137 8.7109375 25.2265625 C8.15140381 24.48825195 7.59187012 23.74994141 7.01538086 22.98925781 C5.68359375 21.1484375 5.68359375 21.1484375 4.68359375 19.1484375 C4.6755069 20.20888275 4.66742004 21.269328 4.65908813 22.36190796 C4.58171838 32.33893948 4.49400263 42.31583308 4.39606667 52.29268456 C4.34604763 57.42230889 4.29971825 62.55191206 4.26171875 67.68164062 C4.22493659 72.62893906 4.17859626 77.5760628 4.12553024 82.52321243 C4.10694859 84.41388521 4.09185468 86.30459548 4.08024979 88.19532394 C4.06345159 90.83661674 4.03443285 93.47750614 4.00244141 96.11865234 C4.00028122 96.90627457 3.99812103 97.69389679 3.99589539 98.50538635 C3.91169807 103.92033318 3.91169807 103.92033318 1.68359375 106.1484375 C-0.81640625 106.4609375 -0.81640625 106.4609375 -3.31640625 106.1484375 C-5.36113067 103.08135088 -5.56739827 102.46600526 -5.57710266 99.01147461 C-5.58418747 98.17027069 -5.59127228 97.32906677 -5.59857178 96.46237183 C-5.59609436 95.54279694 -5.59361694 94.62322205 -5.59106445 93.67578125 C-5.59617538 92.70480499 -5.60128632 91.73382874 -5.60655212 90.73342896 C-5.62047484 87.51753612 -5.6194895 84.30185692 -5.6171875 81.0859375 C-5.62107261 78.85538655 -5.62540689 76.62483635 -5.63017273 74.39428711 C-5.63764046 69.71693525 -5.63733939 65.03965886 -5.63208008 60.36230469 C-5.62628105 54.35959609 -5.64322442 48.35719559 -5.66642475 42.35453796 C-5.68113385 37.74782496 -5.68203771 33.14118667 -5.67891502 28.53445435 C-5.67942954 26.32080474 -5.6846915 24.10715109 -5.69472694 21.89352417 C-5.70702091 18.80250833 -5.70034223 15.71209939 -5.6887207 12.62109375 C-5.69636444 11.70151886 -5.70400818 10.78194397 -5.71188354 9.83450317 C-5.70486923 8.99329926 -5.69785492 8.15209534 -5.69062805 7.28540039 C-5.69079579 6.55462784 -5.69096354 5.82385529 -5.69113636 5.07093811 C-5.03814742 1.72086933 -3.36488561 0.21562505 0 0 Z " fill="#F6F6F6" transform="translate(791.31640625,1146.8515625)"/>
<path d="M0 0 C0.94156952 -0.0049649 1.88313904 -0.00992981 2.85324097 -0.01504517 C5.97711916 -0.02968569 9.10094661 -0.03647138 12.22485352 -0.04199219 C14.38957217 -0.04774138 16.55429079 -0.05349914 18.7190094 -0.05926514 C23.2610803 -0.06978003 27.80313348 -0.07561973 32.34521484 -0.07910156 C38.17417906 -0.08459214 44.00291036 -0.10863025 49.83180141 -0.13707352 C54.30382479 -0.15566634 58.77579165 -0.16090367 63.24785042 -0.16243744 C65.39731179 -0.16547129 67.546772 -0.17352432 69.6961956 -0.18662262 C72.69868759 -0.20361554 75.70060488 -0.20181958 78.703125 -0.1953125 C80.04276558 -0.20913467 80.04276558 -0.20913467 81.4094696 -0.22323608 C82.22687622 -0.21766693 83.04428284 -0.21209778 83.88645935 -0.20635986 C84.59640769 -0.20782642 85.30635603 -0.20929298 86.03781796 -0.21080399 C88.49922666 0.27656191 89.38912931 1.20560874 90.91625977 3.16113281 C91.35375977 5.66113281 91.35375977 5.66113281 90.91625977 8.16113281 C89.12662914 10.21284707 87.63862023 11.06715847 84.93005371 11.41952515 C82.39398559 11.50923291 79.87543067 11.49784853 77.33813477 11.45410156 C75.94827362 11.4477343 75.94827362 11.4477343 74.53033447 11.4412384 C71.57534542 11.42446604 68.62104215 11.38681636 65.66625977 11.34863281 C63.66106129 11.33358412 61.65585211 11.31989603 59.65063477 11.30761719 C54.73891281 11.27456719 49.8277025 11.22279463 44.91625977 11.16113281 C44.91902514 11.77681531 44.92179052 12.39249781 44.9246397 13.02683735 C44.9908569 27.99915952 45.04051949 42.97143686 45.07169628 57.94386768 C45.08717341 65.18439297 45.10827894 72.4248206 45.14257812 79.6652832 C45.17245476 85.97516036 45.19182862 92.28496679 45.19852525 98.59491271 C45.2024405 101.93684148 45.21165908 105.2785679 45.23344994 108.6204319 C45.25512258 112.34872222 45.2582309 116.07658881 45.25683594 119.80493164 C45.26762177 120.91623444 45.27840759 122.02753723 45.28952026 123.17251587 C45.28333427 124.69324959 45.28333427 124.69324959 45.27702332 126.2447052 C45.27978869 127.12686109 45.28255407 128.00901697 45.28540325 128.91790485 C44.91625977 131.16113281 44.91625977 131.16113281 43.61636829 132.97622204 C41.91625977 134.16113281 41.91625977 134.16113281 38.35375977 134.03613281 C34.91625977 133.16113281 34.91625977 133.16113281 32.91625977 130.16113281 C32.67016411 127.93352222 32.67016411 127.93352222 32.67575073 125.28266907 C32.6730014 124.27726074 32.67025208 123.27185242 32.66741943 122.23597717 C32.67460999 121.13402512 32.68180054 120.03207306 32.68920898 118.89672852 C32.68891693 117.73561554 32.68862488 116.57450256 32.68832397 115.37820435 C32.68972001 111.5310322 32.70529431 107.68405248 32.72094727 103.83691406 C32.72467642 101.173189 32.72762221 98.50947468 32.72952271 95.8457489 C32.73574093 89.54531493 32.75215636 83.2449503 32.77222168 76.94454688 C32.79457004 69.7717094 32.80557143 62.59886863 32.81561255 55.42600501 C32.83652231 40.67101213 32.87170494 25.91607368 32.91625977 11.16113281 C31.69519531 11.18208008 30.47413086 11.20302734 29.21606445 11.22460938 C24.68379452 11.2970344 20.15157569 11.3429417 15.61889648 11.38085938 C13.65754595 11.40096914 11.69625533 11.42826099 9.73510742 11.46289062 C6.91513282 11.51143702 4.09595112 11.53410767 1.27563477 11.55175781 C-0.03863495 11.58272552 -0.03863495 11.58272552 -1.37945557 11.61431885 C-7.4368005 11.61654915 -7.4368005 11.61654915 -10.67651367 9.3359375 C-12.08374023 7.16113281 -12.08374023 7.16113281 -11.95874023 3.97363281 C-11.66999023 3.04550781 -11.38124023 2.11738281 -11.08374023 1.16113281 C-7.66847693 -0.54649884 -3.75837998 0.00469361 0 0 Z " fill="#F8F8F8" transform="translate(809.083740234375,1324.8388671875)"/>
<path d="M0 0 C0.94156952 -0.0049649 1.88313904 -0.00992981 2.85324097 -0.01504517 C5.97711916 -0.02968569 9.10094661 -0.03647138 12.22485352 -0.04199219 C14.38957217 -0.04774138 16.55429079 -0.05349914 18.7190094 -0.05926514 C23.2610803 -0.06978003 27.80313348 -0.07561973 32.34521484 -0.07910156 C38.17417906 -0.08459214 44.00291036 -0.10863025 49.83180141 -0.13707352 C54.30382479 -0.15566634 58.77579165 -0.16090367 63.24785042 -0.16243744 C65.39731179 -0.16547129 67.546772 -0.17352432 69.6961956 -0.18662262 C72.69868759 -0.20361554 75.70060488 -0.20181958 78.703125 -0.1953125 C80.04276558 -0.20913467 80.04276558 -0.20913467 81.4094696 -0.22323608 C82.22687622 -0.21766693 83.04428284 -0.21209778 83.88645935 -0.20635986 C84.59640769 -0.20782642 85.30635603 -0.20929298 86.03781796 -0.21080399 C88.49922666 0.27656191 89.38912931 1.20560874 90.91625977 3.16113281 C91.35375977 5.66113281 91.35375977 5.66113281 90.91625977 8.16113281 C89.12662914 10.21284707 87.63862023 11.06715847 84.93005371 11.41952515 C82.39398559 11.50923291 79.87543067 11.49784853 77.33813477 11.45410156 C75.94827362 11.4477343 75.94827362 11.4477343 74.53033447 11.4412384 C71.57534542 11.42446604 68.62104215 11.38681636 65.66625977 11.34863281 C63.66106129 11.33358412 61.65585211 11.31989603 59.65063477 11.30761719 C54.73891281 11.27456719 49.8277025 11.22279463 44.91625977 11.16113281 C44.91902514 11.77681531 44.92179052 12.39249781 44.9246397 13.02683735 C44.9908569 27.99915952 45.04051949 42.97143686 45.07169628 57.94386768 C45.08717341 65.18439297 45.10827894 72.4248206 45.14257812 79.6652832 C45.17245476 85.97516036 45.19182862 92.28496679 45.19852525 98.59491271 C45.2024405 101.93684148 45.21165908 105.2785679 45.23344994 108.6204319 C45.25512258 112.34872222 45.2582309 116.07658881 45.25683594 119.80493164 C45.26762177 120.91623444 45.27840759 122.02753723 45.28952026 123.17251587 C45.28333427 124.69324959 45.28333427 124.69324959 45.27702332 126.2447052 C45.27978869 127.12686109 45.28255407 128.00901697 45.28540325 128.91790485 C44.91625977 131.16113281 44.91625977 131.16113281 43.61636829 132.97622204 C41.91625977 134.16113281 41.91625977 134.16113281 38.35375977 134.03613281 C34.91625977 133.16113281 34.91625977 133.16113281 32.91625977 130.16113281 C32.67016411 127.93352222 32.67016411 127.93352222 32.67575073 125.28266907 C32.6730014 124.27726074 32.67025208 123.27185242 32.66741943 122.23597717 C32.67460999 121.13402512 32.68180054 120.03207306 32.68920898 118.89672852 C32.68891693 117.73561554 32.68862488 116.57450256 32.68832397 115.37820435 C32.68972001 111.5310322 32.70529431 107.68405248 32.72094727 103.83691406 C32.72467642 101.173189 32.72762221 98.50947468 32.72952271 95.8457489 C32.73574093 89.54531493 32.75215636 83.2449503 32.77222168 76.94454688 C32.79457004 69.7717094 32.80557143 62.59886863 32.81561255 55.42600501 C32.83652231 40.67101213 32.87170494 25.91607368 32.91625977 11.16113281 C31.69519531 11.18208008 30.47413086 11.20302734 29.21606445 11.22460938 C24.68379452 11.2970344 20.15157569 11.3429417 15.61889648 11.38085938 C13.65754595 11.40096914 11.69625533 11.42826099 9.73510742 11.46289062 C6.91513282 11.51143702 4.09595112 11.53410767 1.27563477 11.55175781 C-0.03863495 11.58272552 -0.03863495 11.58272552 -1.37945557 11.61431885 C-7.4368005 11.61654915 -7.4368005 11.61654915 -10.67651367 9.3359375 C-12.08374023 7.16113281 -12.08374023 7.16113281 -11.95874023 3.97363281 C-11.66999023 3.04550781 -11.38124023 2.11738281 -11.08374023 1.16113281 C-7.66847693 -0.54649884 -3.75837998 0.00469361 0 0 Z " fill="#F8F8F8" transform="translate(304.083740234375,1324.8388671875)"/>
<path d="M0 0 C3.29863597 2.24146663 6.21497581 4.45707838 8.6875 7.625 C9.125 10.8125 9.125 10.8125 8.6875 13.625 C8.0275 14.285 7.3675 14.945 6.6875 15.625 C2.03204544 15.625 -0.23931293 13.06281306 -3.484375 10.12109375 C-11.00867537 3.96338639 -21.08018807 4.01242954 -30.3125 4.625 C-35.78894951 5.7138847 -40.36595886 7.56238413 -44.3125 11.625 C-47.17299421 16.06369792 -47.94555877 19.3796559 -47.3125 24.625 C-45.57976771 30.57404752 -42.42649626 34.01181806 -37.1875 37.19140625 C-31.11951357 40.21715492 -24.70027494 42.38249985 -18.3125 44.625 C-6.28174515 48.88725009 3.63308391 52.73239696 9.6875 64.625 C11.84098074 71.11186529 11.68870851 79.03933967 9.1875 85.375 C5.22358014 93.06556282 -1.2390953 98.62291464 -9.3125 101.625 C-14.28369519 103.08465623 -19.29457072 102.88867472 -24.4375 102.9375 C-25.93023438 102.98100586 -25.93023438 102.98100586 -27.453125 103.02539062 C-38.54107376 103.11947896 -46.5251516 99.0690555 -55.3125 92.625 C-55.93769531 92.20089844 -56.56289063 91.77679687 -57.20703125 91.33984375 C-58.875 90.125 -58.875 90.125 -61.3125 87.625 C-61.8125 84.4375 -61.8125 84.4375 -61.3125 81.625 C-59.3125 79.625 -59.3125 79.625 -56.6875 79.5625 C-52.5677009 80.85947379 -50.51318837 82.93201011 -47.40234375 85.83984375 C-40.56014465 91.68448859 -33.32074218 92.84332229 -24.625 92.9375 C-23.75166016 92.96650391 -22.87832031 92.99550781 -21.97851562 93.02539062 C-15.27729411 93.09045103 -9.73219 91.8746147 -4.75146484 87.14160156 C-0.54466562 82.31549703 0.06072631 78.2992024 -0.046875 72.12109375 C-0.45687025 68.26834424 -1.67951581 66.45064157 -4.3125 63.625 C-10.86903057 58.39074957 -17.91633997 55.67721647 -25.8125 53.0625 C-48.7737105 45.37668164 -48.7737105 45.37668164 -55.41015625 34.890625 C-58.55647497 28.04189401 -58.74929304 19.02477956 -56.43359375 11.93359375 C-52.20176773 3.67943804 -45.48797822 -1.13174024 -36.9609375 -4.4609375 C-24.65265434 -7.54459731 -10.98885208 -6.42705924 0 0 Z " fill="#F8F8F8" transform="translate(670.3125,1151.375)"/>
<path d="M0 0 C3.0625 2.5 3.0625 2.5 4.1875 5.1875 C4.0625 7.5 4.0625 7.5 2.0625 9.5 C-2.79757492 10.19429642 -5.67089167 8.78774377 -9.82421875 6.58984375 C-20.74822783 0.95620506 -32.49657759 1.18485928 -44.1875 4.52734375 C-54.82035965 8.28811371 -63.00338549 15.29148723 -67.9375 25.5 C-73.80047608 39.7550791 -73.13358806 53.10586786 -67.9375 67.5 C-63.02778927 78.36527701 -54.94942155 85.15271613 -43.9375 89.5 C-39.37903644 90.75832588 -34.81937939 90.68362355 -30.125 90.6875 C-28.97161133 90.70586914 -28.97161133 90.70586914 -27.79492188 90.72460938 C-20.4603374 90.74317794 -14.2580335 89.52453167 -7.8125 85.8125 C-4.4269975 84.02570702 -3.24197384 83.48425135 0.6875 83.6875 C1.47125 83.955625 2.255 84.22375 3.0625 84.5 C3.3925 86.48 3.7225 88.46 4.0625 90.5 C-9.62458574 100.27648982 -24.50185436 102.30642889 -40.9375 100.5 C-53.22845783 98.40466578 -64.49552172 90.48179791 -72.33984375 80.94140625 C-82.11287775 66.00706333 -84.50594821 48.79587993 -81.55517578 31.22314453 C-78.07608084 17.6508511 -67.70144749 6.14381431 -56.12890625 -1.21875 C-38.80133343 -11.34966601 -17.15825707 -9.60009054 0 0 Z " fill="#F8F8F8" transform="translate(971.9375,1153.5)"/>
<path d="M0 0 C3.69429481 0.58014111 4.56898953 2.10261019 6.82421875 5.0390625 C7.99791016 6.55693359 7.99791016 6.55693359 9.1953125 8.10546875 C12.47793884 12.52383397 15.69494515 16.98749027 18.86328125 21.48828125 C22.12280487 26.11738298 25.44310451 30.70223123 28.76171875 35.2890625 C29.34276367 36.09287354 29.92380859 36.89668457 30.52246094 37.72485352 C31.89352222 39.62151581 33.26494271 41.51791713 34.63671875 43.4140625 C39.12945674 39.28537695 42.33858789 34.673366 45.69921875 29.6015625 C50.99358585 21.72683099 56.52487272 14.08683414 62.2734375 6.5390625 C63.78546892 4.53968212 65.24622787 2.49979883 66.63671875 0.4140625 C69.63671875 0.0390625 69.63671875 0.0390625 72.63671875 0.4140625 C74.63671875 3.4140625 74.63671875 3.4140625 74.5390625 5.73046875 C73.36271361 9.22896091 71.51901299 11.48167664 69.19921875 14.3515625 C68.27787992 15.51138106 67.35867083 16.67289407 66.44140625 17.8359375 C65.97186523 18.42955078 65.50232422 19.02316406 65.01855469 19.63476562 C62.46319156 22.92513426 60.04482872 26.31580283 57.69406128 29.75498962 C55.407294 33.06850164 53.02944717 36.14670303 50.328125 39.1340332 C39.1824443 51.98950336 38.9225921 63.42704462 39.44921875 79.9140625 C39.49997709 83.41037365 39.53258426 86.90638154 39.55900574 90.4029541 C39.58176952 92.56004535 39.62222668 94.7170391 39.68232727 96.87341309 C39.71546272 98.31762634 39.71546272 98.31762634 39.74926758 99.79101562 C39.77515457 100.63829224 39.80104156 101.48556885 39.82771301 102.35852051 C39.63671875 104.4140625 39.63671875 104.4140625 37.63671875 106.4140625 C35.13671875 106.6640625 35.13671875 106.6640625 32.63671875 106.4140625 C30.63671875 104.4140625 30.63671875 104.4140625 30.43899536 102.34506226 C30.46186615 101.49175323 30.48473694 100.63844421 30.50830078 99.75927734 C30.52716339 98.79001312 30.546026 97.8207489 30.56546021 96.82211304 C30.60460037 95.23954208 30.60460037 95.23954208 30.64453125 93.625 C30.66323851 91.3802319 30.67875487 89.1354354 30.69140625 86.890625 C30.7177271 83.35875631 30.76053316 79.83141195 30.859375 76.30078125 C31.23813723 61.75960521 30.76335716 51.65272933 20.68847656 40.62939453 C20.15943726 40.07817932 19.63039795 39.52696411 19.08532715 38.95904541 C17.15068191 36.8956901 15.54651217 34.65841576 13.9375 32.3359375 C13.43500732 31.63621826 12.93251465 30.93649902 12.41479492 30.21557617 C11.68933472 29.2000769 11.68933472 29.2000769 10.94921875 28.1640625 C6.47569501 21.90548423 6.47569501 21.90548423 1.81640625 15.78515625 C1.39190186 15.24084961 0.96739746 14.69654297 0.5300293 14.13574219 C-0.58727369 12.71417265 -1.71883023 11.30383729 -2.8515625 9.89453125 C-4.56257341 7.08705856 -4.86205215 5.64237087 -4.36328125 2.4140625 C-2.36328125 0.4140625 -2.36328125 0.4140625 0 0 Z " fill="#FAFAFA" transform="translate(695.36328125,1146.5859375)"/>
</svg>